<?xml version="1.0" encoding="UTF-8"?>
<svg xmlns="http://www.w3.org/2000/svg" version="1.1" width="32" height="32" viewBox="0 0 32 32">
  <title>TFM - TelegramFileManager</title>
  <!-- Cloud/Network icon representing cloud-based music library -->
  <g fill="#ff6600">
    <!-- Cloud shape -->
    <path d="M24 14c0-3.3-2.7-6-6-6-2.5 0-4.7 1.6-5.6 3.8C11.8 11.3 11 11 10 11c-2.2 0-4 1.8-4 4 0 0.2 0 0.4 0.1 0.6C4.3 16.1 3 17.9 3 20c0 2.8 2.2 5 5 5h14c2.8 0 5-2.2 5-5 0-2.3-1.5-4.2-3.6-4.8C23.8 14.8 24 14.4 24 14z"/>
    <!-- Music note inside -->
    <path fill="#ffffff" d="M18 15v6c-0.6-0.4-1.3-0.6-2-0.6-1.7 0-3 1.1-3 2.3s1.3 2.3 3 2.3 3-1.1 3-2.3V17l3-1v-2l-4 1z"/>
  </g>
</svg>
